HIERARCHY
ROOT hip
{
  OFFSET 0 0 0
  CHANNELS 6 Xposition Yposition Zposition Zrotation Yrotation Xrotation
  JOINT abdomen
  {
    OFFSET 0 20.6881 -0.73152
    CHANNELS 3 Zrotation Xrotation Yrotation
    JOINT chest
    {
      OFFSET 0 11.7043 -0.48768
      CHANNELS 3 Zrotation Xrotation Yrotation
      JOINT neck
      {
        OFFSET 0 22.1894 -2.19456
        CHANNELS 3 Zrotation Xrotation Yrotation
        JOINT head
        {
          OFFSET -0.24384 7.07133 1.2192
          CHANNELS 3 Zrotation Xrotation Yrotation
          JOINT leftEye
          {
            OFFSET 4.14528 8.04674 8.04672
            CHANNELS 3 Zrotation Xrotation Yrotation
            End Site
            {
              OFFSET 1 0 0
            }
          }
          JOINT rightEye
          {
            OFFSET -3.6576 8.04674 8.04672
            CHANNELS 3 Zrotation Xrotation Yrotation
            End Site
            {
              OFFSET 1 0 0
            }
          }
        }
      }
      JOINT rCollar
      {
        OFFSET -2.68224 19.2634 -4.8768
        CHANNELS 3 Zrotation Xrotation Yrotation
        JOINT rShldr
        {
          OFFSET -8.77824 -1.95073 1.46304
          CHANNELS 3 Zrotation Xrotation Yrotation
          JOINT rForeArm
          {
            OFFSET -28.1742 -1.7115 0.48768
            CHANNELS 3 Zrotation Xrotation Yrotation
            JOINT rHand
            {
              OFFSET -22.5879 0.773209 7.07136
              CHANNELS 3 Zrotation Xrotation Yrotation
              JOINT rThumb1
              {
                OFFSET -1.2192 -0.487915 3.41376
                CHANNELS 3 Zrotation Xrotation Yrotation
                JOINT rThumb2
                {
                  OFFSET -3.37035 -0.52449 3.41376
                  CHANNELS 3 Zrotation Xrotation Yrotation
                  End Site
                  {
                    OFFSET -1.78271 -1.18214 1.43049
                  }
                }
              }
              JOINT rIndex1
              {
                OFFSET -7.75947 0.938293 5.60832
                CHANNELS 3 Zrotation Xrotation Yrotation
                JOINT rIndex2
                {
                  OFFSET -2.54057 -0.884171 1.56538
                  CHANNELS 3 Zrotation Xrotation Yrotation
                  End Site
                  {
                    OFFSET -1.62519 -0.234802 1.16502
                  }
                }
              }
              JOINT rMid1
              {
                OFFSET -8.24714 1.18213 3.41376
                CHANNELS 3 Zrotation Xrotation Yrotation
                JOINT rMid2
                {
                  OFFSET -3.10165 -0.590103 1.0647
                  CHANNELS 3 Zrotation Xrotation Yrotation
                  End Site
                  {
                    OFFSET -2.48547 -0.328903 0.83742
                  }
                }
              }
              JOINT rRing1
              {
                OFFSET -8.82822 0.546677 1.51678
                CHANNELS 3 Zrotation Xrotation Yrotation
                JOINT rRing2
                {
                  OFFSET -2.60934 -0.819778 -0.0198488
                  CHANNELS 3 Zrotation Xrotation Yrotation
                  End Site
                  {
                    OFFSET -2.33842 -0.294052 0.168128
                  }
                }
              }
              JOINT rPinky1
              {
                OFFSET -8.27202 -0.0477905 -0.4584
                CHANNELS 3 Zrotation Xrotation Yrotation
                JOINT rPinky2
                {
                  OFFSET -1.82734 -0.647385 -0.700984
                  CHANNELS 3 Zrotation Xrotation Yrotation
                  End Site
                  {
                    OFFSET -1.69225 -0.51767 -0.607171
                  }
                }
              }
            }
          }
        }
      }
      JOINT lCollar
      {
        OFFSET 2.68224 19.2634 -4.8768
        CHANNELS 3 Zrotation Xrotation Yrotation
        JOINT lShldr
        {
          OFFSET 8.77824 -1.95073 1.46304
          CHANNELS 3 Zrotation Xrotation Yrotation
          JOINT lForeArm
          {
            OFFSET 28.1742 -1.7115 0.48768
            CHANNELS 3 Zrotation Xrotation Yrotation
            JOINT lHand
            {
              OFFSET 22.5879 0.773209 7.07136
              CHANNELS 3 Zrotation Xrotation Yrotation
              JOINT lThumb1
              {
                OFFSET 1.2192 -0.487915 3.41376
                CHANNELS 3 Zrotation Xrotation Yrotation
                JOINT lThumb2
                {
                  OFFSET 3.37035 -0.52449 3.41376
                  CHANNELS 3 Zrotation Xrotation Yrotation
                  End Site
                  {
                    OFFSET 1.78271 -1.18214 1.43049
                  }
                }
              }
              JOINT lIndex1
              {
                OFFSET 7.75947 0.938293 5.60832
                CHANNELS 3 Zrotation Xrotation Yrotation
                JOINT lIndex2
                {
                  OFFSET 2.54057 -0.884171 1.56538
                  CHANNELS 3 Zrotation Xrotation Yrotation
                  End Site
                  {
                    OFFSET 1.62519 -0.234802 1.16502
                  }
                }
              }
              JOINT lMid1
              {
                OFFSET 8.24714 1.18213 3.41376
                CHANNELS 3 Zrotation Xrotation Yrotation
                JOINT lMid2
                {
                  OFFSET 3.10165 -0.590103 1.0647
                  CHANNELS 3 Zrotation Xrotation Yrotation
                  End Site
                  {
                    OFFSET 2.48547 -0.328903 0.83742
                  }
                }
              }
              JOINT lRing1
              {
                OFFSET 8.82822 0.546677 1.51678
                CHANNELS 3 Zrotation Xrotation Yrotation
                JOINT lRing2
                {
                  OFFSET 2.60934 -0.819778 -0.0198488
                  CHANNELS 3 Zrotation Xrotation Yrotation
                  End Site
                  {
                    OFFSET 2.33842 -0.294052 0.168128
                  }
                }
              }
              JOINT lPinky1
              {
                OFFSET 8.27202 -0.0477905 -0.4584
                CHANNELS 3 Zrotation Xrotation Yrotation
                JOINT lPinky2
                {
                  OFFSET 1.82734 -0.647385 -0.700984
                  CHANNELS 3 Zrotation Xrotation Yrotation
                  End Site
                  {
                    OFFSET 1.69225 -0.51767 -0.607171
                  }
                }
              }
            }
          }
        }
      }
    }
  }
  JOINT rButtock
  {
    OFFSET -8.77824 4.35084 1.2192
    CHANNELS 3 Zrotation Xrotation Yrotation
    JOINT rThigh
    {
      OFFSET 0 -1.70687 -2.19456
      CHANNELS 3 Zrotation Xrotation Yrotation
      JOINT rShin
      {
        OFFSET 0 -36.8199 0.73152
        CHANNELS 3 Zrotation Xrotation Yrotation
        JOINT rFoot
        {
          OFFSET 0.73152 -45.1104 -5.12064
          CHANNELS 3 Zrotation Xrotation Yrotation
          End Site
          {
            OFFSET -1.1221 -3.69964 12.103
          }
        }
      }
    }
  }
  JOINT lButtock
  {
    OFFSET 8.77824 4.35084 1.2192
    CHANNELS 3 Zrotation Xrotation Yrotation
    JOINT lThigh
    {
      OFFSET 0 -1.70687 -2.19456
      CHANNELS 3 Zrotation Xrotation Yrotation
      JOINT lShin
      {
        OFFSET 0 -36.8199 0.73152
        CHANNELS 3 Zrotation Xrotation Yrotation
        JOINT lFoot
        {
          OFFSET -0.73152 -45.1104 -5.12064
          CHANNELS 3 Zrotation Xrotation Yrotation
          End Site
          {
            OFFSET 1.1221 -3.69964 12.103
          }
        }
      }
    }
  }
}
MOTION
Frames:	9
Frame Time:	0.00833333
83.1722 72.4257 -246.844 0.0 0.0 0.0 1.57505 -0.0027078 0.0428966 0.43417 0.00151646 0.075188 -3.75014e-15 7.95139e-16 -1.26201e-23 -1.09176e-14 3.18055e-15 7.45443e-17 -0.0 0.0 0.0 -0.0 0.0 0.0 -1.84019e-15 -8.15328e-18 1.49089e-16 -3.58247e-14 2.29845e-16 9.93923e-16 -6.60561e-13 1.9302e-13 2.54444e-14 -7.51884e-12 -2.1583e-13 2.54444e-14 -1.77447e-11 -5.34192e-14 1.20861e-13 -3.06542e-11 -9.22361e-14 2.05146e-13 -1.77395e-11 -5.4467e-14 1.17681e-13 7.73091 5.47488 0.417314 -1.77458e-11 -5.31749e-14 1.17681e-13 2.90554 0.965183 0.102902 -1.77372e-11 -5.30755e-14 1.17681e-13 10.2786 0.731801 0.0259123 -1.77529e-11 -5.00937e-14 1.24042e-13 2.22167 -0.733487 -0.20892 -2.03623e-15 -8.92978e-18 -1.49089e-16 -3.93452e-14 -1.61513e-16 -9.93923e-16 -6.542e-13 -2.02363e-13 -1.90833e-14 -7.52351e-12 1.6442e-13 8.26944e-14 -1.77383e-11 -8.32975e-14 1.17681e-13 -3.0622e-11 -1.39944e-13 2.19458e-13 -1.77407e-11 -8.18993e-14 1.30403e-13 -7.73091 5.47488 -0.417314 -1.77376e-11 -8.37877e-14 1.24042e-13 -2.90554 0.965183 -0.102902 -1.77422e-11 -8.37877e-14 1.24042e-13 -10.2786 0.731801 -0.0259123 -1.77298e-11 -7.91163e-14 1.24042e-13 -2.22167 -0.733487 0.20892 -2.03217e-16 0.0 -3.88251e-19 1.70433 -6.60406 -0.159306 0.00259039 6.39975 0.0733943 -0.527481 0.199709 0.0640266 2.03217e-16 0.0 3.88251e-19 0.691733 -1.9236 0.00558648 0.00917959 -2.07857 0.0757642 0.50327 3.99746 -0.139001
84.9232 69.1865 -253.386 3.0562 2.5923 26.6381 1.88339 4.98359 0.644253 -0.557757 -2.38875 0.0900596 -2.81327 1.19099 -3.10699 5.33029 -9.26983 -4.17574 -0.0 0.0 0.0 -0.0 0.0 0.0 3.02022e-15 -4.72498e-15 -2.79964e-14 19.2789 12.3813 1.1276 -21.9645 -19.8472 15.1164 0.00267259 -1.19906 -0.168408 -2.38833e-10 -2.23126e-09 9.14797e-10 -4.1629e-10 -3.85325e-09 1.58217e-09 -2.38831e-10 -2.23126e-09 9.14793e-10 7.73091 5.47488 0.417314 -2.38836e-10 -2.23126e-09 9.14795e-10 2.90554 0.965183 0.102902 -2.38827e-10 -2.23126e-09 9.14797e-10 10.2786 0.731801 0.0259123 -2.38837e-10 -2.23125e-09 9.14804e-10 2.22167 -0.733487 -0.20892 2.87287e-15 -4.72958e-15 -2.8281e-14 -20.515 11.0763 9.62702 27.2387 -24.7834 -13.6369 -0.0396401 -4.42 0.614538 1.96539e-11 8.29275e-11 -2.88399e-10 3.85634e-11 1.49265e-10 -4.99909e-10 1.96517e-11 8.29299e-11 -2.88384e-10 -7.73091 5.47488 -0.417314 1.96557e-11 8.29293e-11 -2.88395e-10 -2.90554 0.965183 -0.102902 1.96499e-11 8.29297e-11 -2.88394e-10 -10.2786 0.731801 -0.0259123 1.96604e-11 8.29319e-11 -2.88395e-10 -2.22167 -0.733487 0.20892 -2.03217e-16 0.0 -3.88251e-19 5.38857 -4.4982 0.685674 0.111306 18.1269 0.357288 -0.721586 5.21669 -2.84838 2.03217e-16 0.0 3.88251e-19 0.546211 -24.3592 2.52727 0.201464 15.8214 -0.0727347 0.21002 3.64812 -4.17963
84.5144 68.8117 -250.785 3.6864 3.1043 26.1655 2.17944 10.2156 1.34522 -1.63162 -4.91108 0.121077 -5.63906 2.42382 -6.39135 9.41223 -18.8912 -8.95997 -0.0 0.0 0.0 -0.0 0.0 0.0 8.89058e-15 -1.15287e-14 -6.43037e-14 38.9601 25.5275 2.62231 -32.2484 -36.1279 37.158 -0.00228678 -2.42617 -0.341021 -4.6654e-10 -4.70454e-09 1.91001e-09 -8.13629e-10 -8.12475e-09 3.30361e-09 -4.6654e-10 -4.70454e-09 1.91001e-09 7.73091 5.47488 0.417314 -4.66544e-10 -4.70454e-09 1.91001e-09 2.90554 0.965183 0.102902 -4.66534e-10 -4.70454e-09 1.91002e-09 10.2786 0.731801 0.0259123 -4.66539e-10 -4.70454e-09 1.91002e-09 2.22167 -0.733487 -0.20892 8.79567e-15 -1.15375e-14 -6.4574e-14 -46.4886 21.6654 21.1723 38.977 -45.6309 -37.8463 0.0228132 -9.10275 1.27814 7.48414e-11 2.48855e-10 -5.64781e-10 1.38546e-10 4.41726e-10 -9.79093e-10 7.48394e-11 2.48859e-10 -5.64765e-10 -7.73091 5.47488 -0.417314 7.48444e-11 2.4886e-10 -5.64781e-10 -2.90554 0.965183 -0.102902 7.48372e-11 2.4886e-10 -5.64778e-10 -10.2786 0.731801 -0.0259123 7.48455e-11 2.4886e-10 -5.6478e-10 -2.22167 -0.733487 0.20892 -2.03217e-16 0.0 -3.88251e-19 9.27508 -2.09928 1.67516 0.083821 30.2069 0.720205 -0.345155 10.5849 -6.02651 2.03217e-16 0.0 3.88251e-19 3.61924 -48.0185 7.15168 0.519352 34.6931 -0.271574 -0.134913 3.40794 -8.48336
84.1202 68.7881 -248.037 4.4836 3.6604 25.5911 2.17662 14.9492 1.90413 -2.53783 -7.16926 0.12051 -8.05358 3.53094 -9.33683 11.5493 -27.1815 -13.9273 -0.0 0.0 0.0 -0.0 0.0 0.0 1.27411e-14 -1.41586e-14 -8.42874e-14 56.0615 37.0787 4.14279 -30.349 -40.3106 62.5732 -0.0131637 -3.59705 -0.506111 -6.8101e-10 -6.69368e-09 2.74415e-09 -1.18756e-09 -1.15596e-08 4.74611e-09 -6.81013e-10 -6.69367e-09 2.74414e-09 7.73091 5.47488 0.417314 -6.81015e-10 -6.69366e-09 2.74415e-09 2.90554 0.965183 0.102902 -6.81006e-10 -6.69366e-09 2.74416e-09 10.2786 0.731801 0.0259123 -6.81006e-10 -6.69366e-09 2.74416e-09 2.22167 -0.733487 -0.20892 1.26911e-14 -1.41709e-14 -8.45448e-14 -73.5064 29.2253 32.9502 31.2443 -50.7952 -72.5276 0.172096 -13.2538 1.88845 9.44384e-11 2.48949e-10 -8.65431e-10 1.76934e-10 4.48075e-10 -1.50016e-09 9.44365e-11 2.48953e-10 -8.65414e-10 -7.73091 5.47488 -0.417314 9.44423e-11 2.48956e-10 -8.65433e-10 -2.90554 0.965183 -0.102902 9.4434e-11 2.48957e-10 -8.65429e-10 -10.2786 0.731801 -0.0259123 9.44407e-11 2.48954e-10 -8.65433e-10 -2.22167 -0.733487 0.20892 -2.03217e-16 0.0 -3.88251e-19 12.5709 -0.287132 2.36721 -0.12848 41.5763 1.16676 0.460088 15.0926 -8.94885 2.03217e-16 0.0 3.88251e-19 14.7467 -68.2232 18.8812 0.988305 51.6199 -0.582034 -0.52453 2.91081 -12.2522
83.7712 68.4892 -245.389 5.3119 4.3409 24.9682 1.69878 18.4455 2.04477 -3.03372 -8.76707 0.0396754 -9.70336 4.36233 -11.4209 12.0734 -32.7323 -18.0347 -0.0 0.0 0.0 -0.0 0.0 0.0 1.15418e-14 -6.35412e-15 -6.3462e-14 68.3873 44.7307 4.8238 -28.4299 -36.1042 77.184 -0.0263344 -4.62742 -0.651774 -8.62391e-10 -7.47242e-09 3.17559e-09 -1.50298e-09 -1.29026e-08 5.49127e-09 -8.62395e-10 -7.47241e-09 3.17559e-09 7.73091 5.47488 0.417314 -8.62397e-10 -7.47241e-09 3.17559e-09 2.90554 0.965183 0.102902 -8.62387e-10 -7.47241e-09 3.1756e-09 10.2786 0.731801 0.0259123 -8.62385e-10 -7.47241e-09 3.17561e-09 2.22167 -0.733487 -0.20892 1.1518e-14 -6.36771e-15 -6.37105e-14 -94.0703 33.3659 41.3137 26.7653 -44.6157 -92.6781 0.328072 -16.0816 2.32204 2.50596e-11 -1.65542e-10 -1.22675e-09 6.13366e-11 -2.6086e-10 -2.12595e-09 2.50568e-11 -1.65537e-10 -1.22673e-09 -7.73091 5.47488 -0.417314 2.50632e-11 -1.65535e-10 -1.22675e-09 -2.90554 0.965183 -0.102902 2.50546e-11 -1.65534e-10 -1.22675e-09 -10.2786 0.731801 -0.0259123 2.5061e-11 -1.65537e-10 -1.22675e-09 -2.22167 -0.733487 0.20892 -2.03217e-16 0.0 -3.88251e-19 14.5681 0.0614964 2.31704 -0.509603 51.1733 1.66213 1.13647 17.6128 -10.9385 2.03217e-16 0.0 3.88251e-19 46.4499 -79.4997 50.8398 1.59254 63.6857 -1.04077 -1.01183 1.81343 -14.6884
83.5061 68.4582 -242.699 6.9173 5.1172 24.3979 0.654804 20.2461 1.54581 -2.95387 -9.44088 -0.157926 -10.3937 4.85119 -12.2918 12.1061 -34.934 -19.9118 -0.0 0.0 0.0 -0.0 0.0 0.0 -8.76379e-15 2.74637e-14 3.32044e-14 75.1014 46.9994 3.54899 -28.4264 -32.6769 79.4982 -0.0381807 -5.40934 -0.762702 -9.73036e-10 -6.36631e-09 3.08499e-09 -1.69517e-09 -1.09872e-08 5.33224e-09 -9.73038e-10 -6.3663e-09 3.08498e-09 7.73091 5.47488 0.417314 -9.73041e-10 -6.3663e-09 3.08499e-09 2.90554 0.965183 0.102902 -9.73033e-10 -6.3663e-09 3.08499e-09 10.2786 0.731801 0.0259123 -9.73031e-10 -6.3663e-09 3.085e-09 2.22167 -0.733487 -0.20892 -8.7915e-15 2.7452e-14 3.29618e-14 -101.698 35.7124 42.9572 26.8975 -40.6579 -97.6028 0.397698 -17.1074 2.4841 -2.29616e-10 -1.62596e-09 -1.87189e-09 -3.73168e-10 -2.77128e-09 -3.24226e-09 -2.29621e-10 -1.62595e-09 -1.87187e-09 -7.73091 5.47488 -0.417314 -2.29614e-10 -1.62595e-09 -1.87189e-09 -2.90554 0.965183 -0.102902 -2.29622e-10 -1.62595e-09 -1.87189e-09 -10.2786 0.731801 -0.0259123 -2.29614e-10 -1.62595e-09 -1.8719e-09 -2.22167 -0.733487 0.20892 -2.03217e-16 0.0 -3.88251e-19 14.7463 -1.54772 1.20253 -0.935422 58.3663 2.08683 1.08737 17.4375 -11.4678 2.03217e-16 0.0 3.88251e-19 68.1104 -81.5488 73.1118 2.06391 69.0254 -1.41868 -1.59825 -0.144531 -15.2418
83.2536 68.2137 -240.086 8.2953 5.7718 23.9332 -0.766082 20.8303 0.578001 -2.46078 -9.45447 -0.438457 -10.4299 5.1035 -12.2928 12.2859 -34.9035 -19.8583 -0.0 0.0 0.0 -0.0 0.0 0.0 -4.21436e-14 7.93194e-14 1.83152e-13 77.7693 45.372 0.866955 -28.3671 -31.34 75.5196 -0.0478429 -6.01628 -0.849063 -1.03432e-09 -3.92292e-09 2.6195e-09 -1.80133e-09 -6.76011e-09 4.52394e-09 -1.03432e-09 -3.92291e-09 2.6195e-09 7.73091 5.47488 0.417314 -1.03432e-09 -3.92291e-09 2.61951e-09 2.90554 0.965183 0.102902 -1.03432e-09 -3.92291e-09 2.61951e-09 10.2786 0.731801 0.0259123 -1.03432e-09 -3.92292e-09 2.61952e-09 2.22167 -0.733487 -0.20892 -4.21966e-14 7.93117e-14 1.82913e-13 -99.1809 37.4255 39.2481 26.9639 -40.8212 -96.4025 0.383077 -16.845 2.44316 -6.13754e-10 -3.81129e-09 -2.71029e-09 -1.03054e-09 -6.53039e-09 -4.69257e-09 -6.13763e-10 -3.81129e-09 -2.71027e-09 -7.73091 5.47488 -0.417314 -6.13756e-10 -3.81129e-09 -2.71029e-09 -2.90554 0.965183 -0.102902 -6.13761e-10 -3.81129e-09 -2.71029e-09 -10.2786 0.731801 -0.0259123 -6.1375e-10 -3.81129e-09 -2.7103e-09 -2.22167 -0.733487 0.20892 -2.03217e-16 0.0 -3.88251e-19 13.4689 -4.56063 -0.674397 -1.32748 63.8401 2.41243 0.458229 15.357 -10.9362 2.03217e-16 0.0 3.88251e-19 47.6933 -81.1232 53.6666 2.1687 69.5585 -1.4775 -2.15305 -2.74072 -14.4756
83.0251 68.0022 -237.497 9.8052 6.4262 23.5635 -2.29438 20.8701 -0.563278 -1.80604 -9.20287 -0.745683 -10.2189 5.23623 -11.9413 12.5462 -33.9704 -19.0064 -0.0 0.0 0.0 -0.0 0.0 0.0 -6.14943e-14 1.20142e-13 3.24479e-13 78.3317 42.075 -2.09129 -28.0442 -30.0641 69.1458 -0.0567195 -6.63607 -0.937226 -1.11491e-09 -1.24915e-09 1.93731e-09 -1.93913e-09 -2.13632e-09 3.34057e-09 -1.1149e-09 -1.24915e-09 1.9373e-09 7.73091 5.47488 0.417314 -1.11491e-09 -1.24915e-09 1.93731e-09 2.90554 0.965183 0.102902 -1.11491e-09 -1.24915e-09 1.93731e-09 10.2786 0.731801 0.0259123 -1.11491e-09 -1.24915e-09 1.93732e-09 2.22167 -0.733487 -0.20892 -6.15749e-14 1.20139e-13 3.24239e-13 -92.4285 38.6193 33.0422 27.0284 -42.532 -92.7285 0.33249 -15.9932 2.31018 -9.52509e-10 -5.54179e-09 -3.30778e-09 -1.61174e-09 -9.50881e-09 -5.7262e-09 -9.52521e-10 -5.54179e-09 -3.30775e-09 -7.73091 5.47488 -0.417314 -9.52514e-10 -5.54179e-09 -3.30778e-09 -2.90554 0.965183 -0.102902 -9.52517e-10 -5.54179e-09 -3.30778e-09 -10.2786 0.731801 -0.0259123 -9.52503e-10 -5.54179e-09 -3.30778e-09 -2.22167 -0.733487 0.20892 -2.03217e-16 0.0 -3.88251e-19 11.3899 -8.27053 -2.84128 -1.74188 68.5078 2.74184 -0.30713 12.5392 -9.96578 2.03217e-16 0.0 3.88251e-19 21.58 -77.6249 28.4983 2.0665 68.0454 -1.36212 -2.57475 -5.57563 -13.252
82.7975 67.8183 -234.949 11.3514 7.0611 23.3267 -3.63205 21.0439 -1.59132 -1.2484 -9.08124 -1.02453 -10.1549 5.36337 -11.7564 12.7618 -33.445 -18.5301 -0.0 0.0 0.0 -0.0 0.0 0.0 -3.97125e-14 1.20861e-13 3.95283e-13 79.3813 39.4152 -4.67389 -27.4979 -28.1715 64.3372 -0.0686802 -7.4565 -1.05396 -1.28349e-09 5.48111e-10 1.19657e-09 -2.22629e-09 9.69032e-10 2.05635e-09 -1.28348e-09 5.48111e-10 1.19656e-09 7.73091 5.47488 0.417314 -1.28349e-09 5.48107e-10 1.19657e-09 2.90554 0.965183 0.102902 -1.28349e-09 5.48105e-10 1.19657e-09 10.2786 0.731801 0.0259123 -1.28349e-09 5.48105e-10 1.19658e-09 2.22167 -0.733487 -0.20892 -3.9804e-14 1.20861e-13 3.95035e-13 -87.5632 39.8153 27.5463 27.2539 -43.2963 -90.0619 0.294043 -15.251 2.19603 -1.07103e-09 -5.63768e-09 -3.23017e-09 -1.81772e-09 -9.67719e-09 -5.59249e-09 -1.07105e-09 -5.63768e-09 -3.23015e-09 -7.73091 5.47488 -0.417314 -1.07104e-09 -5.63769e-09 -3.23017e-09 -2.90554 0.965183 -0.102902 -1.07104e-09 -5.63769e-09 -3.23017e-09 -10.2786 0.731801 -0.0259123 -1.07103e-09 -5.63768e-09 -3.23018e-09 -2.22167 -0.733487 0.20892 -2.03217e-16 0.0 -3.88251e-19 9.3418 -11.969 -4.82712 -2.44777 73.2797 3.38099 -0.872198 10.1735 -9.11712 2.03217e-16 0.0 3.88251e-19 10.3657 -74.1158 17.9716 2.02256 67.2454 -1.32079 -2.92928 -8.20614 -12.4163
